# xmcd
#
# Track frame offsets: 
#        150
#        13300
#        26432
#        41587
#        49830
#        59282
#        76917
#        90765
#        104080
#        112100
#        121177
#        135150
#        154962
#        165497
#        192647
#        205750
#
# Disc length: 2903 seconds
#
# Revision: 6
# Processed by: cddbd v1.5.2PL0 Copyright (c) Steve Scherf et al.
# Submitted via: ExactAudioCopy v0.95b4
#
DISCID=cf0b5510
DTITLE=Ned Nash Orchestra - The Greatest Western Movie Themes
DYEAR=1988
DGENRE=Soundtrack
TTITLE0=Rio Bravo
TTITLE1=Hang 'm High
TTITLE2=The Man With The Harmonica
TTITLE3=A Fistful Of Dollars
TTITLE4=The Magnificent Seven
TTITLE5=Once Upon A Time In the West
TTITLE6=My Name Is Nobody
TTITLE7=High Noon
TTITLE8=Ballad Of The Alamo
TTITLE9=How the West Was Won
TTITLE10=Johnny Guitar
TTITLE11=Wand'rin Star
TTITLE12=The Comancheros
TTITLE13=Good Luck Jack
TTITLE14=The Good, The Bad And The Ugly
TTITLE15=For A Few Dollars More
EXTD=LABEL =Laserlight\nID =15055\nUPC =01811-15055-29\nCOPYRIGHT =
EXTD=none
EXTT0=
EXTT1=
EXTT2=
EXTT3=
EXTT4=
EXTT5=
EXTT6=
EXTT7=
EXTT8=
EXTT9=
EXTT10=
EXTT11=
EXTT12=
EXTT13=
EXTT14=
EXTT15=
PLAYORDER=
